# xmcd CD database file generated by Grip 3.2.0
# 
# Track frame offsets:
#       150
#       12918
#       27528
#       40020
#       52115
#       63868
#       74375
#       88040
#       101565
#       116703
#       132495
# 
# Disc length: 1949 seconds
# 
# Revision: 2
# Processed by: cddbd v1.5.1PL0 Copyright (c) Steve Scherf et al.
# Submitted via: Grip 3.2.0
# 
DISCID=99079b0b
DTITLE=Riders In The Sky - Cowboys In Love
DYEAR=1994
DGENRE=Country
TTITLE0=The Cowboy's In Love
TTITLE1=Along The Santa Fe Trail
TTITLE2=One Has My Name, The Other Has My Heart
TTITLE3=Wimmen... Who Needs 'Em
TTITLE4=Sweet Senorita Teresa
TTITLE5=Farr Away Stomp (A Tribute To Our Four Legged Friends)
TTITLE6=The Yellow Rose Of Texas
TTITLE7=La Malaguena
TTITLE8=I'm A Ding Dong Daddy
TTITLE9=Early Autumn
TTITLE10=You're Wearin' Out Your Welcome, Matt
EXTD=
EXTT0=Riders In The Sky
EXTT1=Riders In The Sky
EXTT2=Riders In The Sky
EXTT3=Riders In The Sky
EXTT4=Riders In The Sky
EXTT5=Riders In The Sky
EXTT6=Riders In The Sky
EXTT7=Riders In The Sky
EXTT8=Riders In The Sky
EXTT9=Riders In The Sky
EXTT10=Riders In The Sky
PLAYORDER=
